<svg xmlns="http://www.w3.org/2000/svg" width="1080" height="1620" viewBox="0 0 1080 1620" font-family="-apple-system,Segoe UI,Roboto,Arial,sans-serif">
<defs>
 <linearGradient id="bg" x1="0" y1="0" x2="1" y2="1"><stop offset="0" stop-color="#1f6f5c"/><stop offset="0.6" stop-color="#103a2e"/><stop offset="1" stop-color="#08221b"/></linearGradient>
 <radialGradient id="glow" cx="0.8" cy="0.16" r="0.5"><stop offset="0" stop-color="#e8c574" stop-opacity="0.18"/><stop offset="1" stop-color="#e8c574" stop-opacity="0"/></radialGradient>
 <pattern id="dots" width="26" height="26" patternUnits="userSpaceOnUse"><circle cx="2" cy="2" r="1.4" fill="#ffffff" opacity="0.05"/></pattern>
</defs>
<rect width="1080" height="1620" fill="url(#bg)"/>
<rect width="1080" height="1620" fill="url(#dots)"/>
<rect width="1080" height="1620" fill="url(#glow)"/>
<!-- başlık -->
<text x="70" y="120" font-size="40" fill="#e8c574">⌖</text>
<text x="120" y="128" font-size="52" font-weight="800" fill="#ffffff" letter-spacing="-1">Mimari Tasarım Üretici</text>
<text x="72" y="178" font-size="25" fill="#bfe0d3">Koordinat veya ada/parsel girin · saniyeler içinde tasarım, 3B ve fizibilite</text>
<line x1="72" y1="208" x2="1008" y2="208" stroke="#ffffff" opacity="0.15" stroke-width="2"/>
<!-- hero illüstrasyon -->
<polygon points="540.0,508.4 962.3,752.2 540.0,996.0 117.7,752.2" fill="#0e3329" opacity="0.6"/><polygon points="667.5,655.6 540.0,729.2 540.0,342.8 667.5,269.2" fill="#0c3a2e"/><polygon points="412.5,655.6 540.0,729.2 540.0,342.8 412.5,269.2" fill="#1f6f5c"/><polygon points="540.0,195.6 667.5,269.2 540.0,342.8 412.5,269.2" fill="#e8c574"/><polygon points="421.0,652.8 445.7,667.0 445.7,653.2 421.0,639.0" fill="#bcd9e8" opacity="0.92"/><polygon points="463.5,677.3 488.2,691.5 488.2,677.7 463.5,663.5" fill="#bcd9e8" opacity="0.92"/><polygon points="506.0,701.8 530.7,716.1 530.7,702.3 506.0,688.0" fill="#bcd9e8" opacity="0.92"/><polygon points="421.0,625.2 445.7,639.4 445.7,625.6 421.0,611.4" fill="#bcd9e8" opacity="0.92"/><polygon points="463.5,649.7 488.2,663.9 488.2,650.1 463.5,635.9" fill="#bcd9e8" opacity="0.92"/><polygon points="506.0,674.2 530.7,688.5 530.7,674.7 506.0,660.4" fill="#bcd9e8" opacity="0.92"/><polygon points="421.0,597.6 445.7,611.8 445.7,598.0 421.0,583.8" fill="#bcd9e8" opacity="0.92"/><polygon points="463.5,622.1 488.2,636.3 488.2,622.5 463.5,608.3" fill="#bcd9e8" opacity="0.92"/><polygon points="506.0,646.6 530.7,660.9 530.7,647.1 506.0,632.8" fill="#bcd9e8" opacity="0.92"/><polygon points="421.0,570.0 445.7,584.2 445.7,570.4 421.0,556.2" fill="#bcd9e8" opacity="0.92"/><polygon points="463.5,594.5 488.2,608.7 488.2,594.9 463.5,580.7" fill="#bcd9e8" opacity="0.92"/><polygon points="506.0,619.0 530.7,633.3 530.7,619.5 506.0,605.2" fill="#bcd9e8" opacity="0.92"/><polygon points="421.0,542.4 445.7,556.6 445.7,542.8 421.0,528.6" fill="#bcd9e8" opacity="0.92"/><polygon points="463.5,566.9 488.2,581.1 488.2,567.3 463.5,553.1" fill="#bcd9e8" opacity="0.92"/><polygon points="506.0,591.4 530.7,605.7 530.7,591.9 506.0,577.6" fill="#bcd9e8" opacity="0.92"/><polygon points="421.0,514.8 445.7,529.0 445.7,515.2 421.0,501.0" fill="#bcd9e8" opacity="0.92"/><polygon points="463.5,539.3 488.2,553.5 488.2,539.7 463.5,525.5" fill="#bcd9e8" opacity="0.92"/><polygon points="506.0,563.8 530.7,578.1 530.7,564.3 506.0,550.0" fill="#bcd9e8" opacity="0.92"/><polygon points="421.0,487.2 445.7,501.4 445.7,487.6 421.0,473.4" fill="#bcd9e8" opacity="0.92"/><polygon points="463.5,511.7 488.2,525.9 488.2,512.1 463.5,497.9" fill="#bcd9e8" opacity="0.92"/><polygon points="506.0,536.2 530.7,550.5 530.7,536.7 506.0,522.4" fill="#bcd9e8" opacity="0.92"/><polygon points="421.0,459.6 445.7,473.8 445.7,460.0 421.0,445.8" fill="#bcd9e8" opacity="0.92"/><polygon points="463.5,484.1 488.2,498.3 488.2,484.5 463.5,470.3" fill="#bcd9e8" opacity="0.92"/><polygon points="506.0,508.6 530.7,522.9 530.7,509.1 506.0,494.8" fill="#bcd9e8" opacity="0.92"/><polygon points="421.0,432.0 445.7,446.2 445.7,432.4 421.0,418.2" fill="#bcd9e8" opacity="0.92"/><polygon points="463.5,456.5 488.2,470.7 488.2,456.9 463.5,442.7" fill="#bcd9e8" opacity="0.92"/><polygon points="506.0,481.0 530.7,495.3 530.7,481.5 506.0,467.2" fill="#bcd9e8" opacity="0.92"/><polygon points="421.0,404.4 445.7,418.6 445.7,404.8 421.0,390.6" fill="#bcd9e8" opacity="0.92"/><polygon points="463.5,428.9 488.2,443.1 488.2,429.3 463.5,415.1" fill="#bcd9e8" opacity="0.92"/><polygon points="506.0,453.4 530.7,467.7 530.7,453.9 506.0,439.6" fill="#bcd9e8" opacity="0.92"/><polygon points="421.0,376.8 445.7,391.0 445.7,377.2 421.0,363.0" fill="#bcd9e8" opacity="0.92"/><polygon points="463.5,401.3 488.2,415.5 488.2,401.7 463.5,387.5" fill="#bcd9e8" opacity="0.92"/><polygon points="506.0,425.8 530.7,440.1 530.7,426.3 506.0,412.0" fill="#bcd9e8" opacity="0.92"/><polygon points="421.0,349.2 445.7,363.4 445.7,349.6 421.0,335.4" fill="#bcd9e8" opacity="0.92"/><polygon points="463.5,373.7 488.2,387.9 488.2,374.1 463.5,359.9" fill="#bcd9e8" opacity="0.92"/><polygon points="506.0,398.2 530.7,412.5 530.7,398.7 506.0,384.4" fill="#bcd9e8" opacity="0.92"/><polygon points="421.0,321.6 445.7,335.8 445.7,322.0 421.0,307.8" fill="#bcd9e8" opacity="0.92"/><polygon points="463.5,346.1 488.2,360.3 488.2,346.5 463.5,332.3" fill="#bcd9e8" opacity="0.92"/><polygon points="506.0,370.6 530.7,384.9 530.7,371.1 506.0,356.8" fill="#bcd9e8" opacity="0.92"/><polygon points="421.0,294.0 445.7,308.2 445.7,294.4 421.0,280.2" fill="#bcd9e8" opacity="0.92"/><polygon points="463.5,318.5 488.2,332.7 488.2,318.9 463.5,304.7" fill="#bcd9e8" opacity="0.92"/><polygon points="506.0,343.0 530.7,357.3 530.7,343.5 506.0,329.2" fill="#bcd9e8" opacity="0.92"/><polygon points="747.2,784.4 635.6,848.8 635.6,609.6 747.2,545.2" fill="#0c3a2e"/><polygon points="508.1,775.2 635.6,848.8 635.6,609.6 508.1,536.0" fill="#1f6f5c"/><polygon points="619.7,471.6 747.2,545.2 635.6,609.6 508.1,536.0" fill="#cfe2da"/><polygon points="516.6,772.7 541.3,786.9 541.3,773.6 516.6,759.4" fill="#bcd9e8" opacity="0.92"/><polygon points="559.1,797.2 583.8,811.4 583.8,798.1 559.1,783.9" fill="#bcd9e8" opacity="0.92"/><polygon points="601.6,821.7 626.3,836.0 626.3,822.7 601.6,808.4" fill="#bcd9e8" opacity="0.92"/><polygon points="516.6,746.1 541.3,760.3 541.3,747.0 516.6,732.8" fill="#bcd9e8" opacity="0.92"/><polygon points="559.1,770.6 583.8,784.8 583.8,771.6 559.1,757.3" fill="#bcd9e8" opacity="0.92"/><polygon points="601.6,795.2 626.3,809.4 626.3,796.1 601.6,781.9" fill="#bcd9e8" opacity="0.92"/><polygon points="516.6,719.5 541.3,733.7 541.3,720.4 516.6,706.2" fill="#bcd9e8" opacity="0.92"/><polygon points="559.1,744.0 583.8,758.3 583.8,745.0 559.1,730.8" fill="#bcd9e8" opacity="0.92"/><polygon points="601.6,768.6 626.3,782.8 626.3,769.5 601.6,755.3" fill="#bcd9e8" opacity="0.92"/><polygon points="516.6,692.9 541.3,707.2 541.3,693.9 516.6,679.6" fill="#bcd9e8" opacity="0.92"/><polygon points="559.1,717.5 583.8,731.7 583.8,718.4 559.1,704.2" fill="#bcd9e8" opacity="0.92"/><polygon points="601.6,742.0 626.3,756.2 626.3,742.9 601.6,728.7" fill="#bcd9e8" opacity="0.92"/><polygon points="516.6,666.4 541.3,680.6 541.3,667.3 516.6,653.1" fill="#bcd9e8" opacity="0.92"/><polygon points="559.1,690.9 583.8,705.1 583.8,691.8 559.1,677.6" fill="#bcd9e8" opacity="0.92"/><polygon points="601.6,715.4 626.3,729.6 626.3,716.4 601.6,702.1" fill="#bcd9e8" opacity="0.92"/><polygon points="516.6,639.8 541.3,654.0 541.3,640.7 516.6,626.5" fill="#bcd9e8" opacity="0.92"/><polygon points="559.1,664.3 583.8,678.5 583.8,665.2 559.1,651.0" fill="#bcd9e8" opacity="0.92"/><polygon points="601.6,688.8 626.3,703.1 626.3,689.8 601.6,675.6" fill="#bcd9e8" opacity="0.92"/><polygon points="516.6,613.2 541.3,627.4 541.3,614.1 516.6,599.9" fill="#bcd9e8" opacity="0.92"/><polygon points="559.1,637.7 583.8,652.0 583.8,638.7 559.1,624.4" fill="#bcd9e8" opacity="0.92"/><polygon points="601.6,662.3 626.3,676.5 626.3,663.2 601.6,649.0" fill="#bcd9e8" opacity="0.92"/><polygon points="516.6,586.6 541.3,600.8 541.3,587.6 516.6,573.3" fill="#bcd9e8" opacity="0.92"/><polygon points="559.1,611.2 583.8,625.4 583.8,612.1 559.1,597.9" fill="#bcd9e8" opacity="0.92"/><polygon points="601.6,635.7 626.3,649.9 626.3,636.6 601.6,622.4" fill="#bcd9e8" opacity="0.92"/><polygon points="516.6,560.0 541.3,574.3 541.3,561.0 516.6,546.8" fill="#bcd9e8" opacity="0.92"/><polygon points="559.1,584.6 583.8,598.8 583.8,585.5 559.1,571.3" fill="#bcd9e8" opacity="0.92"/><polygon points="601.6,609.1 626.3,623.3 626.3,610.0 601.6,595.8" fill="#bcd9e8" opacity="0.92"/><polygon points="444.4,747.6 308.9,825.8 308.9,641.8 444.4,563.6" fill="#0c3a2e"/><polygon points="197.4,761.4 308.9,825.8 308.9,641.8 197.4,577.4" fill="#1f6f5c"/><polygon points="332.8,499.2 444.4,563.6 308.9,641.8 197.4,577.4" fill="#cfe2da"/><polygon points="204.8,758.3 226.4,770.8 226.4,757.6 204.8,745.2" fill="#bcd9e8" opacity="0.92"/><polygon points="242.0,779.8 263.6,792.3 263.6,779.1 242.0,766.7" fill="#bcd9e8" opacity="0.92"/><polygon points="279.2,801.3 300.8,813.7 300.8,800.6 279.2,788.1" fill="#bcd9e8" opacity="0.92"/><polygon points="204.8,732.0 226.4,744.5 226.4,731.4 204.8,718.9" fill="#bcd9e8" opacity="0.92"/><polygon points="242.0,753.5 263.6,766.0 263.6,752.8 242.0,740.4" fill="#bcd9e8" opacity="0.92"/><polygon points="279.2,775.0 300.8,787.4 300.8,774.3 279.2,761.8" fill="#bcd9e8" opacity="0.92"/><polygon points="204.8,705.8 226.4,718.2 226.4,705.1 204.8,692.6" fill="#bcd9e8" opacity="0.92"/><polygon points="242.0,727.2 263.6,739.7 263.6,726.5 242.0,714.1" fill="#bcd9e8" opacity="0.92"/><polygon points="279.2,748.7 300.8,761.1 300.8,748.0 279.2,735.6" fill="#bcd9e8" opacity="0.92"/><polygon points="204.8,679.5 226.4,691.9 226.4,678.8 204.8,666.3" fill="#bcd9e8" opacity="0.92"/><polygon points="242.0,700.9 263.6,713.4 263.6,700.3 242.0,687.8" fill="#bcd9e8" opacity="0.92"/><polygon points="279.2,722.4 300.8,734.9 300.8,721.7 279.2,709.3" fill="#bcd9e8" opacity="0.92"/><polygon points="204.8,653.2 226.4,665.6 226.4,652.5 204.8,640.0" fill="#bcd9e8" opacity="0.92"/><polygon points="242.0,674.7 263.6,687.1 263.6,674.0 242.0,661.5" fill="#bcd9e8" opacity="0.92"/><polygon points="279.2,696.1 300.8,708.6 300.8,695.4 279.2,683.0" fill="#bcd9e8" opacity="0.92"/><polygon points="204.8,626.9 226.4,639.4 226.4,626.2 204.8,613.8" fill="#bcd9e8" opacity="0.92"/><polygon points="242.0,648.4 263.6,660.8 263.6,647.7 242.0,635.2" fill="#bcd9e8" opacity="0.92"/><polygon points="279.2,669.8 300.8,682.3 300.8,669.1 279.2,656.7" fill="#bcd9e8" opacity="0.92"/><polygon points="204.8,600.6 226.4,613.1 226.4,599.9 204.8,587.5" fill="#bcd9e8" opacity="0.92"/><polygon points="242.0,622.1 263.6,634.5 263.6,621.4 242.0,608.9" fill="#bcd9e8" opacity="0.92"/><polygon points="279.2,643.6 300.8,656.0 300.8,642.9 279.2,630.4" fill="#bcd9e8" opacity="0.92"/><circle cx="858" cy="250" r="46" fill="#e8c574" opacity="0.9"/><circle cx="858" cy="250" r="64" fill="none" stroke="#e8c574" stroke-width="2" opacity="0.4"/>
<!-- özellik başlığı -->
<text x="70" y="958" font-size="30" font-weight="800" fill="#e8c574" letter-spacing="0.5">ÖZELLİKLER</text>
<rect x="70" y="970" width="940" height="54" rx="14" fill="#ffffff" opacity="0.08"/><text x="96" y="1006" font-size="28">🗺️</text><text x="150" y="1005" font-size="25" fill="#eef6f1" font-weight="600">Gerçek TKGM ada/parsel + uydu harita</text><rect x="70" y="1034" width="940" height="54" rx="14" fill="#ffffff" opacity="0.08"/><text x="96" y="1070" font-size="28">🧠</text><text x="150" y="1069" font-size="25" fill="#eef6f1" font-weight="600">Plan notu / foto OCR → otomatik imar</text><rect x="70" y="1098" width="940" height="54" rx="14" fill="#ffffff" opacity="0.08"/><text x="96" y="1134" font-size="28">🏗️</text><text x="150" y="1133" font-size="25" fill="#eef6f1" font-weight="600">Çok bloklu · 1–99 kat · çekme kat · çatı</text><rect x="70" y="1162" width="940" height="54" rx="14" fill="#ffffff" opacity="0.08"/><text x="96" y="1198" font-size="28">🧊</text><text x="150" y="1197" font-size="25" fill="#eef6f1" font-weight="600">Gerçek 3D (döndür/zoom) + güneş analizi</text><rect x="70" y="1226" width="940" height="54" rx="14" fill="#ffffff" opacity="0.08"/><text x="96" y="1262" font-size="28">📐</text><text x="150" y="1261" font-size="25" fill="#eef6f1" font-weight="600">Vaziyet · kat planı · 3B render</text><rect x="70" y="1290" width="940" height="54" rx="14" fill="#ffffff" opacity="0.08"/><text x="96" y="1326" font-size="28">💰</text><text x="150" y="1325" font-size="25" fill="#eef6f1" font-weight="600">Fizibilite · ROI · senaryo · nakit akışı</text><rect x="70" y="1354" width="940" height="54" rx="14" fill="#ffffff" opacity="0.08"/><text x="96" y="1390" font-size="28">📄</text><text x="150" y="1389" font-size="25" fill="#eef6f1" font-weight="600">PDF rapor · DXF · OBJ · KML · CSV</text><rect x="70" y="1418" width="940" height="54" rx="14" fill="#ffffff" opacity="0.08"/><text x="96" y="1454" font-size="28">🔐</text><text x="150" y="1453" font-size="25" fill="#eef6f1" font-weight="600">Çoklu kullanıcı · arşiv · PWA (kurulabilir)</text>
<!-- footer -->
<line x1="72" y1="1500" x2="1008" y2="1500" stroke="#ffffff" opacity="0.15" stroke-width="2"/>
<text x="540" y="1545" text-anchor="middle" font-size="24" fill="#bfe0d3">c6qp7gh4nr-sys.github.io/cnnny/mimari-tasarim.html</text>
<text x="540" y="1585" text-anchor="middle" font-size="27" fill="#ffffff" font-weight="800">Powered By Can Tosun — ANGİM</text>
</svg>